<?xml version="1.0" standalone="no"?>
<!DOCTYPE svg PUBLIC "-//W3C//DTD SVG 20010904//EN"
 "http://www.w3.org/TR/2001/REC-SVG-20010904/DTD/svg10.dtd">
<svg version="1.0" xmlns="http://www.w3.org/2000/svg"
 width="644.000000pt" height="644.000000pt" viewBox="0 0 644.000000 644.000000"
 preserveAspectRatio="xMidYMid meet">
<metadata>
Created by potrace 1.14, written by Peter Selinger 2001-2017
</metadata>
<g transform="translate(0.000000,644.000000) scale(0.100000,-0.100000)"
fill="#000000" stroke="none">
<path d="M1003 6103 c-7 -3 -12 -52 -12 -149 -1 -113 1 -144 11 -138 6 4 31 7
55 5 l44 -2 -3 142 -3 143 -40 1 c-23 1 -46 0 -52 -2z"/>
<path d="M3965 6001 c-3 -6 -7 -35 -7 -64 -1 -28 -3 -55 -5 -60 -3 -4 -17 5
-31 21 -15 15 -35 31 -44 35 -36 13 -26 -13 24 -64 45 -45 53 -59 54 -93 2
-63 -5 -68 -39 -28 -18 20 -43 46 -57 57 -13 11 -31 28 -39 37 -11 13 -18 15
-28 6 -11 -9 4 -29 76 -99 86 -86 89 -90 88 -134 -1 -43 -2 -46 -44 -66 -35
-17 -46 -19 -58 -9 -8 7 -15 10 -15 6 0 -3 -13 5 -29 20 -16 14 -28 33 -26 42
1 9 0 22 -4 27 -3 6 -6 15 -7 20 -1 6 -7 30 -14 55 -7 25 -13 50 -15 55 -5 22
-18 45 -25 45 -16 0 -19 -31 -5 -69 7 -22 16 -52 19 -68 3 -15 8 -39 12 -53 6
-22 5 -23 -8 -13 -8 7 -18 10 -21 6 -4 -3 -7 -1 -7 5 0 7 -6 12 -13 12 -21 0
-47 34 -47 62 0 13 -3 28 -7 32 -8 8 -10 13 -12 46 -1 23 -29 27 -37 5 -4 -8
-1 -22 6 -30 7 -8 10 -15 6 -15 -3 0 -1 -11 4 -25 8 -20 7 -23 -8 -18 -9 4
-30 15 -47 25 -49 29 -56 31 -68 19 -9 -10 -8 -14 5 -22 9 -5 23 -15 30 -22 8
-6 20 -13 27 -15 8 -2 23 -9 33 -16 20 -14 23 -13 -62 -30 -3 -1 -14 -7 -25
-13 -37 -21 9 -26 79 -9 61 16 68 16 98 0 65 -34 62 -38 -42 -63 -94 -21 -130
-43 -90 -54 10 -3 21 -2 25 1 3 3 11 7 18 8 12 3 59 13 87 19 8 2 17 4 20 6 9
4 24 7 43 8 10 0 16 5 12 10 -7 12 41 -1 82 -22 27 -15 30 -21 29 -59 -1 -24
-5 -49 -9 -55 -12 -19 -66 -42 -87 -37 -11 2 -28 6 -39 8 -10 2 -35 9 -55 14
-20 6 -36 8 -36 5 0 -3 -6 -1 -12 5 -19 15 -86 23 -93 11 -9 -14 -2 -20 24
-22 11 -1 21 -4 21 -7 0 -3 28 -12 63 -20 34 -7 65 -14 70 -15 4 -2 12 -3 18
-4 5 0 7 -6 4 -11 -4 -6 -11 -8 -16 -5 -5 4 -9 2 -9 -3 0 -5 -13 -15 -30 -22
-26 -11 -52 -10 -115 6 -41 10 -65 11 -70 4 -8 -13 20 -30 54 -33 17 -1 31 -6
31 -10 0 -5 4 -5 10 -2 5 3 7 0 4 -8 -5 -14 -39 -31 -56 -28 -5 1 -8 -3 -8 -7
0 -5 -12 -14 -26 -20 -25 -12 -25 -32 1 -32 8 0 37 14 66 30 l52 31 -7 -28
c-17 -74 -17 -90 -1 -90 9 0 18 12 21 26 3 14 10 36 15 49 5 13 9 31 9 41 0
11 20 30 49 49 47 29 49 29 45 9 -3 -12 -7 -34 -10 -48 -3 -15 -13 -49 -23
-77 -11 -28 -16 -53 -13 -56 12 -13 38 -5 39 12 0 9 10 49 22 87 12 39 23 80
25 93 3 21 31 51 48 52 4 0 13 6 20 14 12 11 21 9 59 -13 43 -24 45 -29 46
-69 1 -46 -16 -68 -134 -173 -26 -23 -38 -41 -33 -49 11 -18 22 -12 99 63 l70
68 -2 -53 c-2 -49 -6 -57 -55 -106 -46 -48 -57 -72 -33 -72 4 0 23 16 44 35
20 19 38 31 40 27 3 -4 4 -31 5 -60 0 -56 13 -84 28 -61 4 7 7 39 6 71 -1 61
7 71 32 37 22 -32 50 -49 66 -39 10 6 0 21 -41 62 -51 48 -56 57 -58 101 -2
46 13 65 25 32 4 -8 13 -15 21 -15 8 0 11 -4 8 -10 -3 -5 1 -10 10 -10 9 0 13
-4 10 -10 -3 -5 -1 -10 5 -10 15 0 41 -26 33 -34 -4 -3 1 -6 10 -6 10 0 17 -4
17 -10 0 -13 27 -13 34 -1 4 5 -20 33 -51 63 -114 106 -123 119 -121 165 1 36
5 44 30 54 15 6 28 15 28 20 0 13 19 11 62 -8 34 -15 41 -24 54 -71 9 -30 17
-60 18 -66 10 -53 39 -127 49 -123 15 5 17 37 4 55 -5 6 -7 12 -4 12 4 0 -1
19 -9 42 -8 23 -12 48 -10 55 3 7 2 13 -2 13 -4 0 -9 10 -9 22 -1 13 1 18 5
12 5 -8 41 -31 80 -51 2 -1 8 -21 13 -45 14 -64 30 -98 45 -98 15 0 12 47 -6
80 -5 10 -7 20 -4 23 8 8 74 -24 74 -35 0 -5 4 -7 9 -3 5 3 12 1 16 -5 9 -15
35 -12 35 3 0 7 -19 24 -42 37 -46 26 -75 50 -61 51 4 0 17 3 28 5 11 3 28 7
39 8 10 1 23 10 28 20 9 16 6 18 -28 13 -42 -6 -75 -13 -104 -22 -19 -6 -73
17 -98 41 -11 11 -11 14 0 15 7 0 20 2 28 4 8 2 26 6 40 8 14 3 26 6 28 8 4 3
21 6 41 8 10 0 29 10 42 21 l24 21 -40 -3 c-22 -1 -44 -4 -50 -7 -5 -3 -12 -6
-15 -6 -3 -1 -39 -9 -82 -18 -75 -18 -77 -18 -115 3 -36 19 -38 22 -38 71 -1
47 2 52 27 61 15 6 28 14 28 20 0 9 16 8 95 -7 11 -2 21 -4 23 -5 1 -2 5 -3
10 -4 4 -1 24 -8 45 -15 21 -7 41 -10 44 -7 3 3 15 1 25 -5 24 -13 46 2 26 18
-12 9 -65 26 -125 39 -62 13 -87 32 -51 38 7 1 26 9 42 17 25 14 34 14 90 -1
73 -19 91 -20 91 -1 0 14 -17 20 -64 25 -38 4 -35 33 5 48 19 6 34 16 34 20 0
4 6 7 12 6 7 -2 14 7 16 20 3 20 1 21 -25 11 -15 -5 -30 -13 -33 -17 -3 -4
-20 -15 -38 -24 l-33 -18 7 38 c4 20 10 42 15 48 8 10 -7 34 -22 34 -5 0 -30
-74 -34 -100 -5 -30 -23 -53 -53 -67 -20 -9 -40 -18 -44 -20 -6 -3 39 173 48
188 2 4 -5 9 -16 12 -11 3 -19 2 -18 -2 1 -3 -3 -16 -10 -27 -6 -12 -9 -24 -5
-27 3 -4 1 -12 -5 -19 -6 -7 -11 -16 -11 -20 -1 -5 -1 -9 -2 -10 0 -2 -2 -10
-4 -18 -17 -85 -45 -135 -77 -135 -3 0 -10 -3 -14 -7 -10 -11 -44 -10 -44 1 0
5 -13 14 -29 20 -25 11 -29 18 -29 56 -1 42 2 48 78 123 44 44 81 78 83 75 3
-2 7 2 10 9 2 7 -1 19 -8 25 -11 10 -21 4 -49 -27 -20 -22 -36 -38 -36 -35 0
2 -16 -11 -35 -30 -19 -19 -37 -35 -40 -35 -3 0 -4 21 -3 46 1 42 7 52 55 102
44 44 52 57 40 64 -11 6 -27 -3 -55 -31 l-40 -40 0 66 c0 63 -12 97 -27 74z
m72 -495 c35 -30 31 -82 -8 -117 -26 -23 -35 -26 -60 -19 -16 5 -31 9 -34 10
-20 4 -34 14 -29 21 3 5 1 9 -4 9 -16 0 -20 59 -5 71 7 6 11 15 8 19 -5 8 30
27 60 33 26 4 44 -2 72 -27z"/>
<path d="M5396 5963 c-3 -3 -21 -7 -41 -9 -73 -6 -195 -87 -195 -128 0 -9 -4
-16 -9 -16 -5 0 -13 -15 -17 -32 -4 -18 -9 -36 -10 -40 -1 -5 -2 -15 -3 -23
-1 -11 -13 -15 -41 -15 -22 0 -56 -7 -76 -15 -19 -8 -36 -13 -39 -12 -15 6
-93 -88 -105 -125 -14 -46 -19 -128 -8 -128 3 0 9 -13 13 -29 8 -36 60 -92
111 -117 37 -18 67 -19 538 -20 554 -2 543 -3 604 63 17 20 33 41 33 47 4 32
7 52 10 61 7 26 -16 88 -45 119 -33 36 -71 56 -121 62 -45 6 -55 12 -49 27 9
24 -36 105 -78 141 -46 40 -110 60 -172 54 -52 -6 -54 -4 -85 40 -12 18 -27
30 -32 27 -5 -4 -9 -1 -9 5 0 13 -77 49 -118 56 -15 3 -32 6 -39 9 -6 2 -14 1
-17 -2z"/>
<path d="M2870 5911 l6 -49 -43 -21 c-24 -11 -42 -26 -41 -33 3 -14 67 -40 80
-32 9 6 15 -7 22 -46 12 -70 32 -77 61 -22 18 33 24 37 60 37 22 1 45 -3 51
-7 7 -5 14 0 17 14 4 15 0 26 -13 35 -11 8 -20 21 -20 29 0 9 -5 12 -11 8 -14
-8 -2 51 15 78 9 15 8 21 -4 28 -9 6 -17 5 -22 -3 -4 -7 -8 -9 -8 -4 0 4 -13
1 -29 -7 -28 -15 -30 -14 -62 14 -52 45 -67 41 -59 -19z"/>
<path d="M2415 5930 c-3 -5 3 -15 15 -22 11 -7 20 -18 20 -25 0 -6 3 -13 8
-15 10 -4 65 -108 57 -108 -3 0 -1 -8 4 -18 21 -39 29 -154 16 -212 -11 -45
-13 -55 -15 -57 -2 -2 -3 -6 -4 -10 -12 -57 -118 -203 -146 -203 -6 0 -10 -4
-10 -10 0 -9 -81 -55 -89 -51 -2 2 -7 -1 -10 -6 -10 -13 -80 -35 -91 -28 -5 3
-10 2 -10 -3 0 -10 2 -9 -88 -12 l-63 -3 21 -22 c23 -24 120 -75 175 -91 84
-24 177 -21 290 9 24 7 118 60 142 80 82 70 146 167 160 244 19 107 11 210
-24 293 -3 8 -5 18 -5 23 1 4 -2 7 -8 7 -5 0 -10 7 -10 15 0 8 -4 15 -10 15
-5 0 -10 6 -10 13 0 12 -46 61 -106 114 -47 41 -198 101 -209 83z"/>
<path d="M507 5887 l-35 -32 23 -27 c13 -15 25 -24 28 -22 3 3 8 -4 12 -15 3
-12 10 -21 14 -21 4 0 35 -27 69 -59 l61 -59 35 34 c20 19 36 37 36 40 0 8
-193 194 -202 194 -3 0 -22 -15 -41 -33z"/>
<path d="M1435 5824 c-49 -50 -89 -96 -88 -102 2 -6 16 -24 32 -41 l29 -30 59
54 c32 30 62 55 66 55 5 0 6 4 3 8 -2 4 8 17 24 27 16 11 34 29 41 41 10 19 8
26 -15 49 -14 14 -34 27 -44 29 -10 1 -53 -34 -107 -90z"/>
<path d="M970 5732 c-51 -8 -147 -60 -192 -105 -76 -74 -109 -153 -110 -262
-1 -57 8 -91 37 -151 91 -187 321 -261 513 -167 58 28 134 98 158 145 8 15 14
29 13 30 -2 2 3 14 11 27 21 40 30 128 18 186 -10 48 -38 117 -53 127 -5 4 -6
8 -2 8 12 0 -90 100 -103 100 -5 0 -10 5 -10 11 0 5 -4 7 -10 4 -5 -3 -10 -1
-10 5 0 6 -4 8 -10 5 -5 -3 -10 -2 -10 3 0 21 -166 45 -240 34z"/>
<path d="M2976 5463 c-3 -4 -6 -16 -6 -29 0 -20 -19 -36 -44 -38 -5 -1 -11 -7
-14 -14 -2 -7 0 -11 5 -10 18 6 52 -29 48 -50 -5 -29 15 -40 31 -17 14 19 55
28 64 14 3 -4 12 -4 20 2 11 6 12 11 4 17 -18 11 -21 47 -5 66 13 15 13 19 1
26 -8 5 -19 6 -25 2 -18 -11 -35 -11 -35 1 0 15 -35 38 -44 30z"/>
<path d="M299 5419 c-15 -9 -17 -78 -3 -90 7 -6 17 -8 22 -6 4 3 14 2 22 -3 8
-5 21 -5 31 1 10 5 20 6 22 2 3 -5 42 -7 88 -7 96 2 109 12 100 71 l-6 38
-134 0 c-73 0 -137 -3 -142 -6z"/>
<path d="M1526 5422 c-14 -3 -16 -13 -14 -55 3 -49 4 -51 31 -50 15 1 30 2 35
3 19 5 49 4 69 -2 12 -4 25 -3 28 2 4 6 13 7 23 1 9 -5 26 -5 37 -1 11 4 30 4
43 -1 13 -5 22 -5 23 1 2 13 2 42 0 78 l-1 27 -128 0 c-71 0 -136 -1 -146 -3z"/>
<path d="M5159 5153 c-8 -15 -16 -30 -19 -33 -19 -19 -52 -97 -53 -123 -2 -78
84 -123 149 -77 26 19 41 48 39 77 -3 27 -48 118 -79 156 l-22 28 -15 -28z"/>
<path d="M5824 5166 c-6 -7 -15 -22 -18 -34 -4 -12 -11 -22 -15 -22 -7 0 -26
-33 -30 -55 -2 -5 -7 -16 -13 -22 -6 -7 -7 -13 -4 -13 4 0 2 -8 -3 -18 -13
-25 20 -79 56 -93 39 -15 89 -3 113 28 35 45 26 80 -49 206 -13 20 -24 37 -24
37 -1 -1 -7 -7 -13 -14z"/>
<path d="M5480 5143 c-8 -16 -20 -35 -26 -43 -18 -22 -75 -138 -80 -163 -14
-73 51 -147 131 -147 76 0 134 56 130 125 -3 53 -6 62 -38 119 -15 27 -27 52
-27 57 0 5 -3 9 -8 9 -4 0 -16 16 -26 35 -23 42 -38 44 -56 8z"/>
<path d="M632 5046 c-26 -24 -73 -69 -105 -99 l-57 -55 31 -26 c17 -14 27 -26
22 -27 -4 0 1 -4 12 -8 15 -6 27 -1 48 20 15 16 32 29 38 29 5 0 8 4 5 8 -2 4
8 17 24 27 16 11 35 30 41 42 7 13 14 21 17 18 3 -2 13 7 24 20 l19 25 -35 35
-36 36 -48 -45z"/>
<path d="M1371 5055 c-30 -31 -32 -37 -20 -52 8 -10 18 -21 22 -24 5 -3 43
-40 85 -81 42 -41 80 -77 83 -79 6 -4 69 64 69 75 0 10 -195 197 -202 195 -2
0 -18 -16 -37 -34z"/>
<path d="M1000 4922 c-6 -2 -10 -59 -10 -143 l0 -139 55 1 56 2 0 111 c0 133
-1 142 -3 159 -1 11 -71 18 -98 9z"/>
<path d="M2356 4703 c-4 -4 -59 -8 -124 -10 -183 -4 -268 -9 -280 -17 -7 -4
-12 -2 -12 4 0 6 -5 8 -12 4 -19 -12 -48 -12 -48 0 0 7 -3 8 -8 1 -4 -6 -18
-11 -32 -12 -54 -2 -187 -13 -225 -18 -22 -3 -62 -8 -90 -10 -59 -6 -105 -12
-160 -19 -22 -3 -65 -9 -95 -12 -30 -4 -65 -10 -76 -15 -13 -4 -26 -3 -33 4
-6 6 -11 7 -11 1 0 -5 -14 -11 -31 -12 -18 -1 -37 -6 -43 -10 -6 -3 -19 -5
-29 -4 -9 2 -17 -2 -17 -7 0 -6 -3 -10 -8 -9 -15 4 -72 -14 -72 -23 0 -6 -6
-9 -13 -7 -14 3 -55 -18 -75 -39 -7 -7 -10 -13 -5 -14 4 0 17 -3 28 -5 11 -3
32 -6 47 -8 35 -4 103 -40 103 -54 0 -6 3 -13 7 -17 3 -4 4 -19 1 -33 -3 -15
-6 -32 -7 -38 -1 -7 -8 -20 -16 -30 -13 -16 -13 -17 0 -9 12 7 13 6 3 -7 -7
-8 -10 -18 -6 -21 3 -4 2 -7 -4 -7 -5 0 -10 -6 -10 -12 -1 -7 -12 -43 -26 -80
-14 -38 -22 -68 -19 -68 4 0 2 -4 -3 -8 -6 -4 -16 -25 -24 -47 -8 -22 -18 -51
-24 -65 -6 -14 -9 -31 -8 -37 1 -7 -2 -13 -7 -13 -5 0 -9 -6 -9 -13 0 -6 -12
-42 -26 -79 -15 -36 -27 -71 -27 -77 0 -6 -4 -11 -10 -11 -5 0 -10 -7 -10 -17
0 -9 -3 -14 -6 -10 -3 3 -13 0 -20 -6 -8 -7 -20 -17 -27 -22 -36 -31 -61 -33
-104 -9 -35 19 -43 21 -53 9 -7 -8 -8 -20 -4 -26 4 -7 3 -9 -3 -6 -9 6 -22
-33 -23 -65 0 -5 -9 -23 -19 -41 -20 -37 -12 -72 20 -82 11 -4 20 -11 20 -16
3 -19 5 -24 12 -36 5 -7 4 -13 -1 -13 -5 0 -8 -13 -7 -30 1 -17 -2 -30 -9 -30
-6 0 -4 -5 4 -10 8 -5 11 -10 5 -10 -6 0 -10 -27 -10 -63 0 -34 -3 -72 -7 -84
-5 -16 -3 -23 5 -23 7 0 8 -3 2 -8 -13 -9 -18 -32 -7 -32 4 0 7 -12 6 -27 -1
-16 -3 -28 -4 -28 -1 0 -3 -17 -5 -38 -2 -20 -8 -43 -12 -50 -9 -14 -12 -78
-4 -92 9 -17 10 -35 0 -35 -5 0 -9 -7 -9 -15 0 -9 -7 -18 -15 -21 -8 -4 -12
-10 -9 -15 3 -5 1 -9 -5 -9 -5 0 -12 -13 -16 -30 -4 -16 -11 -30 -16 -30 -6 0
-8 -4 -4 -9 3 -5 0 -13 -6 -16 -5 -4 -8 -13 -5 -21 3 -8 2 -14 -3 -14 -7 0
-13 -18 -26 -75 -1 -5 -3 -12 -4 -15 -5 -11 -10 -47 -16 -105 -2 -33 -6 -72
-8 -87 -3 -16 1 -28 6 -28 8 0 7 -4 0 -11 -16 -16 4 -69 26 -69 11 0 17 -8 18
-22 2 -63 9 -108 16 -108 5 0 6 -4 3 -9 -7 -11 14 -72 29 -88 12 -11 82 -29
97 -25 5 1 9 -4 10 -10 1 -14 4 -29 8 -40 1 -5 3 -11 5 -15 14 -52 67 -157 98
-198 34 -43 107 -118 107 -110 0 3 6 1 13 -5 49 -42 66 -54 97 -67 19 -9 38
-15 43 -15 4 1 7 -3 7 -8 0 -6 6 -10 13 -9 13 2 66 -10 82 -19 8 -5 32 -8 153
-15 23 -1 42 0 42 4 0 3 11 5 25 4 14 -2 27 1 30 5 3 5 14 7 25 5 11 -2 20 0
20 6 0 5 9 9 20 9 12 0 34 7 49 15 16 8 31 11 35 8 3 -4 6 -1 6 5 0 7 7 12 15
12 8 0 15 5 15 11 0 5 5 7 10 4 6 -3 13 1 16 9 3 9 9 14 13 11 4 -2 26 14 49
35 23 22 46 40 52 40 5 0 10 6 10 14 0 8 7 17 16 20 9 4 14 9 11 13 -4 3 1 13
11 22 10 9 29 34 43 56 14 24 32 40 44 41 11 1 49 5 85 9 36 4 171 9 300 10
130 0 241 5 248 9 7 4 12 3 12 -1 0 -5 15 -8 33 -6 17 2 38 4 45 3 37 -1 71
-1 105 2 20 2 37 1 37 -3 0 -8 32 -5 47 4 6 4 14 4 17 -1 6 -10 100 -7 117 4
7 4 9 3 6 -3 -5 -7 4 -8 28 -3 19 4 36 5 39 2 9 -8 67 -8 73 1 2 4 13 2 24 -3
13 -8 25 -7 39 0 14 8 20 8 20 0 0 -7 6 -8 18 -1 9 5 19 10 22 12 3 1 15 -3
28 -10 15 -8 22 -8 22 -1 0 6 4 9 9 5 15 -8 104 -10 118 -2 6 4 14 3 18 -3 4
-6 12 -7 18 -3 17 10 87 9 87 -1 0 -6 5 -5 12 2 7 7 17 8 30 1 10 -5 18 -6 18
-2 0 10 63 9 78 -1 7 -4 12 -3 12 2 0 5 12 7 28 5 30 -4 33 -5 77 0 17 1 36
-2 43 -7 7 -5 12 -5 12 1 0 13 43 11 52 -2 5 -7 8 -6 8 0 0 6 18 11 40 11 22
0 40 -4 40 -8 0 -5 8 -5 18 0 19 10 63 9 80 -2 7 -4 12 -3 12 2 0 11 51 9 69
-2 6 -4 11 -3 11 2 0 11 51 9 69 -2 6 -4 11 -3 11 2 0 10 60 10 76 -1 6 -3 14
-4 18 0 11 11 76 12 69 0 -4 -6 -1 -7 8 -2 15 10 149 14 149 6 0 -4 19 -6 41
-7 23 -1 44 -5 48 -11 8 -12 71 -56 71 -49 0 3 11 -5 25 -18 14 -13 25 -26 25
-30 0 -6 113 -119 144 -143 8 -7 20 -13 26 -13 5 0 10 -3 10 -8 0 -8 81 -47
93 -44 4 1 7 -3 7 -8 0 -5 3 -9 8 -8 9 2 63 -13 77 -20 16 -10 190 -16 225 -8
8 1 33 6 55 11 22 4 45 10 50 14 6 3 15 6 22 7 27 4 126 59 153 84 17 16 30
26 30 23 0 -3 20 16 45 41 25 26 45 49 45 51 0 2 14 24 30 48 17 25 30 50 30
56 0 6 3 11 8 11 4 0 15 28 26 62 10 35 21 70 24 78 3 8 6 18 6 23 1 6 9 9 19
6 1 0 9 -2 17 -4 39 -8 46 -11 56 -25 13 -16 78 -17 98 -1 7 6 15 8 18 6 8 -8
78 65 78 81 0 8 5 14 11 14 8 0 8 4 1 13 -7 8 -7 18 -2 27 5 8 6 19 2 25 -4 5
-8 28 -9 50 -6 136 -16 231 -26 241 -3 4 -2 14 3 24 5 10 7 19 5 22 -3 2 -7
31 -9 64 -3 32 -6 59 -6 59 -1 0 -3 20 -5 44 -1 24 -7 46 -12 50 -14 9 -67
121 -71 149 -2 13 3 31 9 39 7 8 13 43 13 81 0 60 -4 73 -32 114 -32 47 -32
48 -13 65 11 9 18 20 15 25 -3 4 -1 8 5 8 16 0 4 76 -16 102 -49 63 -110 109
-205 156 -86 43 -143 69 -168 77 -3 1 -18 7 -35 14 -16 7 -73 28 -125 48 -52
19 -102 37 -110 40 -8 4 -18 7 -22 8 -5 2 -11 4 -15 5 -5 1 -12 3 -18 4 -5 1
-17 5 -25 8 -19 8 -108 35 -136 41 -11 2 -29 -2 -39 -9 -15 -11 -20 -10 -36
10 -12 16 -29 23 -55 24 -23 1 -44 9 -56 22 -19 20 -39 26 -52 13 -3 -4 -34
-8 -67 -9 -37 -2 -68 -9 -78 -18 -22 -20 -42 -16 -73 14 -83 82 -190 177 -286
255 -14 11 -35 29 -47 40 -12 11 -42 36 -66 55 -24 19 -45 38 -47 42 -2 4 -8
8 -13 8 -5 0 -18 8 -28 18 -34 30 -50 42 -57 42 -4 0 -14 7 -23 15 -9 9 -34
29 -56 45 -22 16 -45 34 -51 39 -7 6 -15 7 -18 4 -3 -4 -6 -1 -6 5 0 6 -8 13
-17 16 -10 3 -31 17 -47 31 -16 13 -32 22 -36 20 -4 -3 -11 2 -14 11 -3 8 -10
12 -16 9 -6 -3 -13 1 -16 9 -3 9 -10 13 -15 10 -5 -3 -12 2 -15 10 -3 9 -10
14 -14 11 -5 -3 -11 -1 -15 5 -4 6 -11 8 -16 5 -5 -4 -9 -1 -9 4 0 6 -6 11
-14 11 -7 0 -27 14 -45 30 -30 29 -40 50 -23 50 5 0 9 6 9 14 0 7 -7 13 -16
11 -9 -1 -20 1 -26 5 -10 8 -135 41 -170 45 -11 1 -20 3 -20 5 0 3 -56 11 -92
13 -18 1 -33 5 -33 9 0 4 -10 7 -22 7 -13 -1 -48 2 -78 6 -30 4 -75 9 -100 10
-25 2 -45 4 -45 5 0 1 -25 3 -55 5 -30 1 -75 4 -100 6 -25 1 -51 -1 -58 -5 -7
-4 -12 -4 -12 1 0 4 -57 8 -128 8 -73 0 -130 4 -134 10 -5 7 -10 7 -15 0 -11
-14 -103 -14 -103 -1 0 6 -4 5 -9 -2 -10 -17 -21 -17 -31 -3 -3 6 -10 8 -14 4z
m409 -210 c100 -3 220 -10 220 -13 0 -1 27 -3 60 -5 33 -2 60 -4 60 -5 0 -1
12 -3 26 -4 14 -2 31 -6 37 -10 7 -4 12 -2 12 4 0 6 5 8 12 4 7 -5 19 -9 28
-10 27 -3 84 -13 110 -18 14 -3 37 -7 53 -8 15 -1 27 -5 27 -8 0 -6 25 -10 67
-13 12 0 19 -5 17 -9 -3 -4 3 -8 12 -8 25 0 88 -23 96 -35 4 -5 8 -7 8 -2 0 4
12 0 28 -9 73 -45 138 -90 150 -104 12 -13 13 -13 7 0 -6 13 -5 13 7 0 13 -16
69 -54 78 -54 3 0 16 -10 30 -23 14 -13 33 -26 43 -29 9 -3 17 -10 17 -16 0
-6 3 -9 6 -5 3 3 11 1 18 -4 53 -44 72 -59 77 -59 4 0 6 -17 5 -37 -2 -21 2
-44 7 -50 6 -9 6 -13 -1 -13 -9 0 -9 -8 -3 -39 1 -2 9 3 18 10 11 10 14 10 9
2 -4 -8 -1 -13 9 -13 9 0 28 -12 43 -27 15 -15 29 -27 32 -28 3 0 4 -3 3 -7
-2 -5 1 -8 5 -8 4 0 9 -19 11 -42 1 -23 7 -46 14 -50 7 -4 8 -8 3 -8 -5 0 -3
-7 4 -15 7 -8 18 -15 24 -14 22 3 39 -1 33 -8 -4 -3 0 -11 8 -17 19 -14 5 -36
-23 -39 -12 -1 -22 -4 -22 -8 0 -4 -31 -6 -70 -5 -38 1 -70 -2 -70 -7 0 -5 -7
-4 -15 3 -11 10 -15 10 -15 0 0 -6 -6 -10 -12 -7 -7 2 -20 1 -28 -3 -8 -5 -28
-3 -44 4 -28 11 -28 12 20 10 51 -2 79 10 67 29 -10 16 -10 109 0 130 4 9 4
17 -1 17 -5 0 -8 21 -6 46 2 27 -2 51 -9 58 -11 11 -83 14 -117 5 -15 -4 -35
-37 -32 -51 1 -5 -3 -8 -10 -8 -6 0 -8 -3 -5 -6 3 -4 2 -15 -4 -25 -7 -14 -6
-19 3 -19 8 0 9 -3 3 -8 -12 -8 -14 -18 -19 -78 -2 -24 -6 -47 -10 -51 -3 -3
2 -15 11 -26 18 -19 17 -20 -9 -15 -16 3 -28 1 -28 -4 0 -5 -4 -7 -9 -3 -6 3
-46 7 -91 9 -44 2 -83 6 -87 10 -3 3 -12 1 -20 -5 -7 -6 -13 -7 -13 -2 0 5
-26 10 -57 11 -116 5 -133 7 -133 16 0 4 -6 3 -13 -3 -8 -6 -17 -8 -20 -4 -4
3 -20 6 -37 5 -16 0 -30 2 -30 6 0 4 -25 7 -55 6 -30 0 -55 2 -55 5 0 4 -15 7
-32 8 -85 2 -176 10 -186 17 -7 4 -12 2 -12 -6 0 -8 -3 -9 -8 -3 -4 6 -35 10
-69 10 -35 0 -63 3 -63 6 0 3 -14 4 -30 3 -17 -1 -33 2 -36 7 -3 5 -13 5 -23
-1 -12 -6 -22 -5 -29 2 -9 9 -12 9 -12 -1 0 -7 -5 -9 -12 -5 -11 7 -29 8 -200
18 -42 2 -81 7 -86 10 -14 8 -22 45 -11 52 5 3 7 10 3 15 -5 9 -12 176 -18
459 -1 58 -5 110 -8 115 -4 6 -3 17 2 25 4 7 4 23 0 36 -14 36 8 44 133 46 68
2 113 6 110 12 -4 5 -1 6 8 0 8 -5 59 -10 114 -11z m-459 -118 c1 -49 3 -135
5 -191 1 -55 -1 -106 -6 -114 -5 -8 -4 -11 3 -7 7 5 9 -19 8 -73 -1 -44 2 -80
7 -80 4 0 3 -9 -3 -20 -6 -11 -7 -20 -2 -20 4 0 8 -19 7 -42 0 -36 -4 -44 -24
-50 -22 -6 -29 -3 -65 29 -8 7 -16 9 -20 6 -3 -4 -6 0 -6 8 0 15 -34 49 -48
49 -4 0 -13 5 -20 12 -6 6 -20 13 -29 15 -25 5 -48 11 -50 13 -2 2 -12 4 -23
5 -11 1 -21 4 -22 5 -2 1 -23 4 -48 5 -119 7 -178 8 -188 1 -8 -5 -10 -1 -5
10 5 13 3 15 -8 9 -8 -5 -7 -1 4 12 9 11 17 25 17 31 0 6 12 37 27 69 15 32
26 61 25 66 -1 4 2 7 7 7 5 0 12 11 15 25 4 14 11 25 17 25 6 0 8 4 4 9 -3 5
2 16 10 24 8 9 15 20 15 24 0 5 9 19 20 31 12 12 18 22 15 22 -5 0 65 69 97
96 14 11 38 21 52 22 5 0 13 7 18 16 5 9 14 14 19 10 5 -3 16 -1 23 6 8 6 34
12 59 13 25 1 43 6 40 10 -3 5 7 7 23 5 l28 -3 2 -90z m-1348 -700 c1 -1 -26
-2 -60 -2 -35 0 -70 -2 -78 -4 -23 -6 -45 -31 -59 -66 -8 -18 -18 -33 -23 -33
-7 0 -6 5 1 13 6 8 8 17 4 20 -3 4 -1 7 6 7 7 0 10 4 7 8 -6 10 38 63 50 61 5
-1 16 1 24 4 38 16 104 11 128 -8z m9 -82 c-11 -29 -23 -53 -28 -53 -4 0 1 20
12 45 11 25 18 49 15 53 -3 5 1 9 8 9 9 0 7 -14 -7 -54z m-24 -75 c-15 -19
-42 -106 -35 -112 3 -3 0 -6 -7 -6 -7 0 -9 -4 -6 -10 3 -5 2 -10 -4 -10 -5 0
-8 -9 -6 -20 2 -11 0 -20 -6 -20 -5 0 -9 -10 -9 -23 0 -13 -3 -27 -7 -31 -8
-8 -9 -12 -12 -39 0 -8 -8 -14 -16 -14 -11 0 -12 4 -4 14 6 7 8 13 3 13 -4 0
-3 5 4 12 7 7 8 17 2 29 -7 11 -7 20 0 24 7 4 7 13 0 26 -6 10 -7 19 -3 19 4
0 2 5 -5 12 -17 17 -15 49 2 42 19 -7 71 45 80 80 3 14 13 26 22 26 12 0 14
-4 7 -12z m-213 -83 c0 -13 -29 -29 -37 -21 -3 2 0 14 7 25 11 22 30 20 30 -4z
m4938 -41 c6 -1 12 3 12 9 0 7 5 5 10 -3 5 -8 10 -11 10 -6 0 4 11 1 25 -8 14
-9 25 -14 25 -11 0 14 59 -31 69 -52 6 -12 15 -23 21 -23 5 0 9 -3 9 -7 -1 -5
0 -11 1 -15 1 -5 4 -12 5 -18 1 -5 4 -11 5 -12 7 -8 6 -178 -1 -178 -4 0 -6
-9 -4 -20 2 -11 -1 -20 -6 -20 -6 0 -7 -4 -4 -10 10 -17 -57 -11 -100 9 -23
10 -54 30 -69 45 -16 14 -33 26 -37 26 -5 0 -9 7 -9 15 0 8 -6 15 -13 15 -7 0
-21 14 -31 30 -9 17 -22 27 -28 24 -7 -4 -8 -2 -4 4 4 7 3 12 -2 12 -5 0 -17
16 -28 35 -10 19 -22 35 -27 35 -4 0 -5 5 -2 10 3 6 2 10 -3 10 -18 0 -2 65
20 82 12 9 26 14 30 12 3 -2 9 0 12 5 3 5 22 8 41 7 19 -1 35 2 35 7 0 4 6 5
13 0 6 -4 18 -8 25 -9z m-4973 -34 c-3 -5 -12 -10 -18 -10 -7 0 -6 4 3 10 19
12 23 12 15 0z m-18 -60 c-2 -11 -6 -22 -9 -26 -4 -3 -5 2 -3 13 2 10 4 21 4
26 1 4 3 7 6 7 3 0 4 -9 2 -20z m-4 -57 c-3 -7 -6 -13 -8 -13 -2 0 -5 6 -8 13
-3 8 1 14 8 14 7 0 11 -6 8 -14z m169 -32 c-8 -4 -13 -11 -12 -15 1 -4 -1 -12
-4 -19 -3 -9 -1 26 3 41 1 1 7 2 14 2 9 0 9 -2 -1 -9z m-142 -86 c0 6 4 5 8
-2 10 -15 60 -24 68 -12 3 5 10 7 15 4 5 -4 9 -1 9 4 0 6 5 11 10 11 7 0 7 -6
0 -20 -6 -11 -16 -17 -25 -14 -8 4 -15 2 -15 -3 0 -5 -13 -8 -30 -5 -16 2 -30
9 -30 15 0 6 -3 8 -6 4 -8 -8 -34 18 -34 34 0 7 6 4 15 -7 8 -10 15 -14 15 -9z
m464 -587 c15 24 240 -8 266 -37 3 -3 17 -12 33 -20 15 -8 27 -18 27 -23 0 -4
6 -8 13 -8 6 0 28 -19 47 -41 40 -46 106 -154 88 -143 -10 6 -11 5 -1 -8 7 -8
10 -18 6 -21 -3 -4 -2 -7 4 -7 11 0 12 -3 16 -94 4 -64 -4 -129 -20 -166 -3
-8 -5 -18 -5 -22 1 -5 -2 -8 -8 -8 -6 0 -9 -3 -8 -7 3 -13 -24 -63 -34 -63 -4
0 -8 -5 -8 -11 0 -16 -100 -109 -116 -109 -8 0 -14 -3 -14 -8 0 -8 -48 -31
-79 -37 -12 -2 -26 -7 -32 -11 -6 -4 -28 -8 -49 -9 -21 -1 -43 -5 -49 -9 -6
-4 -11 -3 -11 3 0 7 -8 7 -25 1 -14 -5 -25 -6 -25 -2 0 4 -17 9 -37 10 -20 2
-43 8 -50 14 -7 6 -13 7 -13 3 0 -4 -11 0 -25 9 -13 9 -29 16 -36 16 -22 0
-133 98 -157 140 -46 77 -49 84 -69 160 -4 14 -4 142 0 183 1 9 5 17 9 17 4 0
7 3 6 8 -3 16 15 62 25 62 6 0 8 3 4 6 -8 8 50 94 69 101 8 3 11 9 8 14 -3 5
-1 9 4 9 5 0 21 11 36 25 14 13 27 24 29 24 12 -2 57 23 57 32 0 7 3 9 7 6 3
-4 12 -2 20 4 7 6 13 9 13 6 0 -3 15 0 32 8 22 9 35 10 39 3 4 -7 9 -7 13 0z
m4106 2 c0 -3 10 -6 23 -8 32 -2 116 -40 140 -63 11 -10 23 -17 26 -16 3 2 18
-10 33 -25 15 -15 24 -28 21 -28 -3 0 3 -8 14 -17 24 -22 75 -118 66 -127 -4
-3 -1 -6 6 -6 7 0 11 -7 8 -15 -4 -8 -2 -17 2 -19 22 -14 13 -217 -10 -240 -5
-6 -9 -18 -9 -27 0 -10 -7 -25 -16 -33 -8 -9 -13 -16 -9 -16 3 0 -2 -11 -11
-25 -9 -14 -21 -22 -27 -18 -5 3 -7 1 -4 -4 6 -10 -57 -83 -72 -83 -4 0 -16
-8 -27 -19 -11 -10 -37 -24 -57 -30 -20 -7 -37 -16 -37 -20 0 -4 -10 -7 -22
-6 -13 1 -27 -1 -33 -4 -5 -4 -17 -7 -25 -6 -8 1 -27 -2 -42 -6 -16 -4 -30 -3
-34 2 -4 6 -11 6 -20 -2 -8 -6 -14 -7 -14 -2 0 6 -10 9 -22 8 -42 -3 -169 51
-190 80 -4 5 -8 7 -8 3 0 -13 -90 78 -90 90 0 7 -4 12 -8 12 -7 0 -40 49 -40
60 -1 10 -22 65 -32 83 -7 12 -7 17 2 17 9 0 9 3 3 8 -12 8 -15 162 -3 162 4
0 5 6 2 14 -3 8 0 17 5 21 6 3 9 11 6 16 -4 5 -1 9 4 9 6 0 10 3 9 8 -5 15 35
91 45 85 5 -3 8 0 5 7 -4 14 86 110 103 110 5 0 18 8 29 18 11 9 22 15 23 12
2 -3 14 2 28 12 14 9 40 19 58 21 18 3 35 7 37 10 6 6 164 4 164 -3z"/>
<path d="M1148 2509 c-15 -4 -29 -4 -32 -1 -3 3 -6 0 -6 -6 0 -7 -9 -12 -20
-12 -11 0 -20 -5 -20 -11 0 -5 -4 -7 -10 -4 -9 6 -18 0 -55 -33 -15 -14 -7
-37 23 -70 7 -8 20 -28 29 -45 9 -18 19 -34 22 -37 12 -9 66 -105 63 -112 -1
-5 3 -8 10 -8 6 0 3 -8 -8 -18 -18 -17 -48 -22 -164 -26 -25 0 -51 -5 -59 -10
-9 -6 -12 -5 -7 2 4 7 -5 9 -26 8 -45 -4 -70 -16 -64 -31 2 -7 2 -16 -2 -19
-8 -9 -10 -46 -2 -46 4 0 8 -10 8 -22 0 -34 29 -95 52 -111 11 -7 17 -17 12
-21 -12 -13 51 17 83 38 36 25 51 36 76 59 10 9 22 18 27 18 4 1 16 7 27 14
11 7 34 16 51 20 36 7 42 -1 40 -58 0 -20 1 -37 4 -37 3 0 6 -28 7 -62 4 -146
4 -145 31 -157 14 -7 28 -8 31 -4 3 4 17 8 31 9 37 0 110 26 110 37 0 6 3 7 7
4 3 -4 14 0 23 8 17 16 16 65 -1 65 -5 0 -9 6 -9 13 0 7 -8 22 -18 33 -11 11
-21 24 -23 29 -2 6 -20 35 -39 65 -40 63 -44 91 -15 105 11 6 79 10 152 10
l132 0 15 33 c9 17 12 32 7 32 -5 0 -8 8 -6 18 1 9 -2 27 -6 40 -5 12 -11 34
-13 49 -3 14 -11 30 -18 35 -7 4 -9 8 -5 8 13 0 -18 28 -34 30 -30 5 -45 -1
-71 -25 -15 -14 -30 -25 -33 -25 -3 0 -13 -7 -22 -16 -29 -25 -87 -60 -118
-71 -33 -11 -59 -7 -49 8 3 5 1 9 -4 9 -9 0 -12 51 -15 223 -1 31 -5 57 -10
57 -4 0 -5 5 -2 10 3 6 3 11 -2 12 -26 5 -61 4 -85 -3z m134 -403 c-7 -11 -8
-17 -11 -37 0 -5 -5 -7 -11 -4 -5 3 -10 2 -10 -4 0 -5 -13 -9 -29 -9 -36 1
-57 34 -45 69 4 13 7 27 6 31 -1 4 7 5 18 3 11 -2 22 1 26 6 4 6 18 -1 35 -17
15 -15 25 -32 21 -38z"/>
<path d="M5108 2513 c-16 -3 -28 -8 -28 -13 0 -5 -9 -7 -20 -5 -11 2 -20 0
-20 -6 0 -5 -3 -8 -7 -7 -22 4 -83 -41 -83 -62 0 -4 7 -13 15 -20 8 -7 13 -15
10 -19 -2 -4 5 -14 16 -21 10 -8 19 -22 19 -31 0 -9 6 -19 13 -22 6 -3 21 -22
32 -43 11 -22 22 -41 25 -44 9 -9 30 -50 30 -59 0 -22 -59 -32 -192 -34 -60
-1 -108 -5 -108 -9 0 -5 -7 -8 -15 -8 -8 0 -16 -6 -16 -12 -1 -7 -3 -25 -5
-40 -1 -16 1 -28 6 -28 5 0 7 -7 4 -15 -4 -8 0 -23 7 -32 8 -9 12 -17 10 -17
-11 -3 15 -52 37 -71 21 -18 30 -21 49 -12 13 6 23 14 23 19 0 4 7 8 15 8 8 0
15 4 15 8 0 4 15 16 33 27 17 10 34 21 37 24 18 21 72 50 102 55 40 6 44 0 43
-71 0 -24 3 -43 7 -43 4 0 4 -10 -1 -22 -5 -13 -5 -32 -2 -43 4 -11 7 -40 6
-65 0 -67 14 -76 103 -68 6 1 12 4 12 8 0 3 9 7 20 8 43 4 50 6 50 14 0 4 6 8
13 8 24 0 39 18 43 49 3 22 0 30 -7 25 -7 -4 -10 -1 -7 6 2 8 -3 21 -11 30
-27 29 -51 60 -46 60 5 0 -37 65 -55 88 -6 6 -8 12 -4 12 3 0 2 6 -4 13 -7 8
-6 18 4 32 8 11 17 19 19 18 3 -2 6 -3 8 -2 1 1 62 2 136 4 115 2 137 5 147
20 8 10 11 22 8 26 -3 5 1 9 8 9 11 0 11 2 0 9 -7 4 -12 12 -11 17 4 17 -13
84 -22 84 -5 0 -6 7 -3 15 4 8 1 15 -6 15 -6 0 -9 3 -6 8 7 12 -18 40 -39 42
-34 4 -43 1 -67 -23 -13 -13 -26 -23 -30 -22 -3 0 -18 -10 -32 -22 -15 -13
-30 -23 -34 -23 -5 0 -17 -9 -29 -19 -11 -11 -37 -24 -57 -29 -32 -9 -37 -8
-47 10 -6 11 -8 26 -5 33 3 8 2 16 -2 19 -4 2 -7 52 -7 110 0 58 -4 106 -8
106 -5 0 -6 4 -3 8 15 25 -30 43 -86 35z m102 -365 c0 -5 5 -6 10 -3 6 3 10 0
11 -7 0 -7 2 -21 4 -30 5 -26 -18 -50 -52 -54 -36 -4 -55 14 -55 53 0 27 28
57 43 47 5 -3 9 -1 9 5 0 6 7 8 15 5 8 -4 15 -10 15 -16z"/>
</g>
</svg>
